<svg width="235" height="48" xmlns="http://www.w3.org/2000/svg"><g fill="none" fill-rule="evenodd"><g fill="#FFF"><path d="M165.3 44.557c-3.82 0-6.424-3.16-6.439-6.43v-.056c.015-3.235 2.586-6.396 6.44-6.396 3.863 0 6.44 3.18 6.44 6.393 0 3.44-2.742 6.489-6.44 6.489m0-15.995c-2.52 0-4.742.885-6.44 2.299V23.68h-3.436v23.532h3.436v-1.884c1.64 1.417 3.82 2.343 6.44 2.343 6.21 0 9.875-5.18 9.875-9.603 0-5.18-4.327-9.506-9.876-9.506M186.74 44.566c-3.832 0-6.44-3.18-6.44-6.458 0-3.244 2.575-6.424 6.44-6.424 3.863 0 6.438 3.178 6.44 6.39v.004c-.002 3.44-2.742 6.488-6.44 6.488zm9.876-6.49v-8.999h-3.436v1.787c-1.716-1.424-3.955-2.294-6.44-2.294-5.682 0-9.875 4.49-9.875 9.44 0 4.59 3.73 9.67 9.875 9.67 2.634 0 4.807-.934 6.44-2.344v1.882h3.436v-9.142zM30.694 44.557c-3.832 0-6.441-3.18-6.441-6.457 0-3.244 2.577-6.425 6.44-6.425 3.865 0 6.44 3.18 6.44 6.393 0 3.44-2.74 6.489-6.44 6.489m0-15.995c-5.681 0-9.874 4.49-9.874 9.439 0 4.589 3.73 9.67 9.875 9.67 6.209 0 9.876-5.18 9.876-9.603 0-5.18-4.328-9.506-9.876-9.506M43.925 47.212h3.435V23.68h-3.435zM52.402 47.212h3.435V23.68h-3.435zM119.878 44.557c-3.832 0-6.44-3.18-6.44-6.457 0-3.244 2.576-6.425 6.44-6.425 3.864 0 6.44 3.18 6.44 6.393 0 3.44-2.741 6.489-6.44 6.489m0-15.995c-5.681 0-9.875 4.49-9.875 9.439 0 4.589 3.732 9.67 9.875 9.67 6.209 0 9.876-5.18 9.876-9.603 0-5.18-4.328-9.506-9.876-9.506M136.329 30.692h-.066v-1.64h-3.204v18.16h3.435V37.28c0-2.589.925-3.966 2.014-4.557.826-.426 1.949-.655 2.478-.655v-3.507c-.859.032-3.205.098-4.657 2.131M10.651 31.675c2.333 0 4.192 1.163 5.302 2.789l2.605-2.08c-1.785-2.305-4.628-3.822-7.907-3.822-5.68 0-9.875 4.49-9.875 9.439 0 4.589 3.731 9.67 9.875 9.67 3.492 0 6.18-1.637 7.862-3.856l-2.574-2.057c-1.139 1.664-3.034 2.799-5.288 2.799-3.832 0-6.44-3.18-6.44-6.457 0-3.244 2.576-6.425 6.44-6.425M89.822 31.675c2.333 0 4.192 1.163 5.302 2.789l2.605-2.08c-1.785-2.305-4.628-3.822-7.907-3.822-5.68 0-9.876 4.49-9.876 9.439 0 4.589 3.732 9.67 9.876 9.67 3.491 0 6.178-1.637 7.861-3.856l-2.573-2.057c-1.14 1.664-3.034 2.799-5.288 2.799-3.832 0-6.44-3.18-6.44-6.457 0-3.244 2.576-6.425 6.44-6.425M62.634 36.985c.165-2.655 2.61-5.31 5.913-5.31 3.303 0 5.747 2.655 5.912 5.31H62.634zm5.946-8.424c-5.153 0-9.381 4.097-9.381 9.538 0 5.147 4.129 9.572 9.314 9.572 2.682 0 6.564-1.32 8.465-5.409h-3.61c-.962 1.26-2.595 2.294-4.722 2.294-2.311 0-5.153-1.442-6.012-4.949h15.16c.034-.229.099-1.147.099-1.737-.033-5.31-4.36-9.309-9.313-9.309zM106.146 23.68h-3.436v5.415h-3.004v3.113h3.004v15.004h3.436V32.167h3.005v-3.114h-3.005zM208.3 28.566c-.727 0-3.499 0-5.348 2.424h-.065v-1.933h-3.202v18.15h3.433v-9.894c0-3.637 1.947-5.634 4.82-5.634 4.554 0 4.554 4.26 4.554 5.667v9.861h3.434V36.461c-.032-2.03-.429-3.473-1.154-4.653-1.32-2.03-3.632-3.242-6.472-3.242M218.996 23.702h3.52v12.5l7.143-7.153h4.226l-8.117 7.952 8.35 10.151h-4.056l-7.547-9.318v9.318h-3.518z"/></g><path d="M3 14.528V3.856h4.688c2.24 0 3.488 1.536 3.488 3.344 0 1.808-1.264 3.344-3.488 3.344H4.872v3.984H3zM9.256 7.2c0-1.024-.768-1.696-1.824-1.696h-2.56v3.392h2.56c1.056 0 1.824-.672 1.824-1.696zm10.368 7.328l-2.368-3.984H15.4v3.984h-1.872V3.856h4.688c2.112 0 3.488 1.376 3.488 3.344 0 1.904-1.248 2.928-2.528 3.136l2.608 4.192h-2.16zm.16-7.328c0-1.024-.768-1.696-1.824-1.696H15.4v3.392h2.56c1.056 0 1.824-.672 1.824-1.696zm4.592 7.328V3.856h1.872v10.672h-1.872zm8.016 0L28.2 3.856h2.128l3.232 8.64 3.232-8.64h2.128l-4.192 10.672h-2.336zm15.248 0l-.784-2.048H41.8l-.784 2.048h-2.048L43.16 3.856h2.336l4.192 10.672H47.64zM44.328 5.44l-2 5.392h4l-2-5.392zm8.832 9.088V5.504h-3.232V3.856h8.336v1.648h-3.232v9.024H53.16zm7.488 0V3.856h1.872v9.024h4.704v1.648h-6.576zm11.696-12.88C72.344.752 73.08 0 73.976 0c.896 0 1.616.752 1.616 1.648 0 .896-.72 1.632-1.616 1.632a1.639 1.639 0 0 1-1.632-1.632zm2.448 0a.813.813 0 0 0-.816-.832.836.836 0 0 0-.832.832c0 .448.384.832.832.832a.823.823 0 0 0 .816-.832zm2.48 12.88l-.784-2.048h-5.056l-.784 2.048H68.6l4.192-10.672h2.336l4.192 10.672h-2.048zM73.96 5.44l-2 5.392h4l-2-5.392zm14.768 9.088L83.16 6.752v7.776h-1.872V3.856h1.92l5.456 7.568V3.856h1.872v10.672h-1.808z" fill="#E50C81"/></g></svg>