<svg xmlns="http://www.w3.org/2000/svg" viewBox="0 0 16 16"><path fill="#fff" d="M13.431 0H4.956a.497.497 0 0 0-.386.182L2.183 3.077a.5.5 0 0 0-.114.318V15.5a.5.5 0 0 0 .5.5h10.862a.5.5 0 0 0 .5-.5V.5a.5.5 0 0 0-.5-.5zM4.656 1.649v1.454H3.458l1.198-1.454zM12.931 15H3.069V4.104h2.087a.5.5 0 0 0 .5-.5V1h7.275v14z"/><path fill="#fff" d="M11.222 10.061H4.778a.5.5 0 0 0 0 1h6.444a.5.5 0 0 0 0-1zm0-2.07H4.778a.5.5 0 0 0 0 1h6.444a.5.5 0 0 0 0-1zM4.778 5.922a.5.5 0 0 0 0 1h6.444a.5.5 0 0 0 0-1H4.778z"/></svg>